<svg height='100px' width='100px'  fill="#F56565" xmlns="http://www.w3.org/2000/svg" xmlns:xlink="http://www.w3.org/1999/xlink" xmlns:sketch="http://www.bohemiancoding.com/sketch/ns" viewBox="0 0 80 80" version="1.1" x="0px" y="0px"><title>Chameleon</title><desc>Created with Sketch.</desc><g stroke="none" stroke-width="1" fill="none" fill-rule="evenodd" sketch:type="MSPage"><path d="M73.4397024,56.8759266 C67.311918,70.533655 53.976577,80 38.512475,80 C17.2426224,80 0,62.09139 0,40 C0,17.9428951 13.9266419,0.0714545746 35.1408452,0.0160358969 L35.1267629,0 C45.642514,0 55.0790167,5.26186995 61.5165679,13.5995806 L61.3470567,2.73278367 C61.3470567,2.73278367 90.2948837,21.4260382 76.0664615,49.2001588 L75.7603635,49.4504636 C75.7245094,49.4797825 75.6422206,49.5356748 75.5088973,49.6095473 C75.2817641,49.7353987 74.9944509,49.8619532 74.6423353,49.9805697 C72.6104826,50.6650363 69.5443924,50.7811286 65.2517035,49.9612595 C59.3225752,48.8288437 51.7844342,46.0262195 42.446999,41.1872256 L42.2983876,41.1102099 L42.2492571,41.2749882 C42.2361696,41.3188819 42.2138168,41.4006983 42.1853038,41.5167079 C42.1380715,41.7088802 42.0909069,41.9277464 42.0469217,42.1695866 C41.7896392,43.5841802 41.7514369,45.0727367 42.0734828,46.4703526 C42.391676,47.8512482 43.0433056,49.0205968 44.0848891,49.9058354 C44.5326974,50.2864263 45.0258026,50.6898034 45.7282739,51.2538369 C45.8569975,51.3571926 45.9892468,51.463161 46.1689113,51.6069649 C46.2802055,51.6960358 46.2802055,51.6960358 46.39204,51.78553 C46.5041195,51.8752292 46.5041195,51.8752292 46.6166385,51.9653259 C46.9823508,52.2582196 47.2556492,52.4780239 47.5236666,52.6952584 C48.527316,53.5087401 49.3043512,54.1649165 49.999919,54.7967471 C52.1997062,56.7949603 53.347223,58.3656241 53.347223,59.626613 C53.347223,59.8577948 52.9849489,59.9846566 52.2353787,59.9393044 C51.4495875,59.8917607 50.3146585,59.6558014 48.9343367,59.25354 C46.0409848,58.4103427 42.3451244,56.9235687 38.8006626,55.1452692 C29.9134441,50.6864439 23.9037979,45.5375508 23.587271,41.0897924 L23.5783841,40.964916 L23.4582357,40.9545734 C23.4208289,40.9513533 23.3516827,40.9466194 23.2548534,40.9419159 C22.4507948,40.9028587 21.5348047,40.942364 20.6631175,41.1216188 C19.4693707,41.3671023 18.5783509,41.8388692 18.1210628,42.5984812 L18.1037098,42.6273067 L18.1003508,42.6611236 L17.9981805,43.6897409 L17.998073,43.7186878 C19.3109096,58.0155005 32.1066983,69.010989 47.5410406,69.010989 C57.203484,69.010989 67.7036712,63.9580696 73.4397024,56.8759266 Z M66.1624571,31.9413919 C68.2660689,31.9413919 69.9713832,30.1702107 69.9713832,27.985348 C69.9713832,25.8004852 68.2660689,24.029304 66.1624571,24.029304 C64.0588453,24.029304 62.353531,25.8004852 62.353531,27.985348 C62.353531,30.1702107 64.0588453,31.9413919 66.1624571,31.9413919 Z" fill="#F56565" sketch:type="MSShapeGroup"></path></g></svg>